# xmcd
#
# Track frame offsets:
#	150
#	21517
#	49891
#
# Disc length: 964 seconds
#
# Revision: 0
# Processed by: cddbd v1.5.1PL2 Copyright (c) Steve Scherf et al.
# Submitted via: audiograbber 1.82.02
#
DISCID=2303c203
DTITLE=Aqualung - The All or Nothing EP
DYEAR=2005
DGENRE=Rock
TTITLE0=All or Nothing
TTITLE1=Somebody to Love (live)
TTITLE2=Good Goodnight
EXTD=
EXTT0=
EXTT1=
EXTT2=
PLAYORDER=
